<svg preserveAspectRatio="none" overflow="visible" style="display: block;" width="1002.07" height="47.0014" viewBox="0 0 1002.07 47.0014" fill="none" xmlns="http://www.w3.org/2000/svg">
<g id="15TH ANNUAL HACKATHON">
<mask id="path-1-outside-1_0_4" maskUnits="userSpaceOnUse" x="-0.584005" y="-0.999403" width="1003" height="49" fill="black">
<rect fill="white" x="-0.584005" y="-0.999403" width="1003" height="49"/>
<path d="M3.72137 34.215H15.1629V13.9292C12.6867 15.0721 9.95443 16.0721 6.11213 17.215L1.416 7.14348L21.1398 2.07203H29.6782V34.215H38.4728V44.9294H3.72137V34.215Z"/>
<path d="M64.9306 35.8579C70.9075 35.8579 72.4444 34.0008 72.4444 31.4293C72.4444 28.7864 70.7367 26.7864 65.1867 26.7864C61.2591 26.7864 58.6975 27.6436 56.3068 29.0007L44.6091 25.2864V2.07203H84.4836V13.6435C73.3836 13.6435 64.4183 13.1435 57.8437 12.6435V20.5721C60.7468 19.215 64.7598 18.2864 70.3098 18.2864C82.2636 18.2864 87.3013 24.1436 87.3013 31.5007C87.3013 41.3579 79.6167 45.6437 64.9306 45.6437C51.5253 45.6437 44.2676 42.0008 42.3891 34.2865L56.6483 31.3579C57.5022 33.5722 59.5514 35.8579 64.9306 35.8579Z"/>
<path d="M90.5626 13.8578V2.07203H132.913V13.8578H119.422V44.9294H104.053V13.8578H90.5626Z"/>
<path d="M137.399 2.07203H152.768V17.8578H169.845V2.07203H185.214V44.9294H169.845V29.3579H152.768V44.9294H137.399V2.07203Z"/>
<path d="M220.768 37.1436L218.207 44.9294H202.411L218.975 2.07203H240.321L256.886 44.9294H240.407L237.931 37.1436H220.768ZM228.538 13.0721C227.684 16.2864 226.66 19.4293 225.635 22.6436L223.842 27.9293H234.942L233.234 22.6436C232.21 19.4293 231.271 16.2864 230.331 13.0721H228.538Z"/>
<path d="M288.167 44.9294L280.824 31.0007C278.86 27.215 275.53 19.5721 273.224 13.6435L272.2 13.7149C272.797 20.3578 273.31 29.4293 273.31 34.0722V44.9294H259.221V2.07203H280.738L286.886 13.5007C289.533 18.4292 292.521 25.8579 294.314 31.2865L295.339 31.1436C294.741 24.9293 294.314 17.7864 294.314 13.3578V2.07203H308.403V44.9294H288.167Z"/>
<path d="M344.367 44.9294L337.024 31.0007C335.06 27.215 331.73 19.5721 329.425 13.6435L328.4 13.7149C328.998 20.3578 329.51 29.4293 329.51 34.0722V44.9294H315.422V2.07203H336.938L343.086 13.5007C345.733 18.4292 348.721 25.8579 350.514 31.2865L351.539 31.1436C350.941 24.9293 350.514 17.7864 350.514 13.3578V2.07203H364.603V44.9294H344.367Z"/>
<path d="M395.273 34.6436C401.762 34.6436 403.555 31.8579 403.555 27.0007V2.07203H418.925V28.0722C418.925 39.5008 410.557 45.9294 395.273 45.9294C379.904 45.9294 371.622 39.5008 371.622 28.0722V2.07203H386.991V27.0007C386.991 31.8579 388.784 34.6436 395.273 34.6436Z"/>
<path d="M439.482 37.1436L436.921 44.9294H421.125L437.689 2.07203H459.035L475.6 44.9294H459.121L456.645 37.1436H439.482ZM447.252 13.0721C446.398 16.2864 445.374 19.4293 444.349 22.6436L442.556 27.9293H453.656L451.948 22.6436C450.924 19.4293 449.985 16.2864 449.045 13.0721H447.252Z"/>
<path d="M493.304 2.07203V33.5007H513.967V44.9294H477.935V2.07203H493.304Z"/>
<path d="M534.052 2.07203H549.421V17.8578H566.498V2.07203H581.867V44.9294H566.498V29.3579H549.421V44.9294H534.052V2.07203Z"/>
<path d="M602.496 37.1436L599.935 44.9294H584.139L600.703 2.07203H622.049L638.614 44.9294H622.135L619.659 37.1436H602.496ZM610.266 13.0721C609.412 16.2864 608.388 19.4293 607.363 22.6436L605.57 27.9293H616.67L614.962 22.6436C613.938 19.4293 612.999 16.2864 612.059 13.0721H610.266Z"/>
<path d="M664.771 46.0008C648.805 46.0008 639.242 37.7151 639.242 23.3578C639.242 8.92921 649.488 1.0006 665.198 1.0006C678.945 1.0006 687.228 6.85776 688.594 18.0007L673.908 20.2864C672.883 14.8578 670.492 12.1435 664.686 12.1435C657.258 12.1435 654.525 17.2864 654.525 23.3578C654.525 30.6436 657.343 35.0722 664.601 35.0722C670.748 35.0722 672.798 32.2865 674.164 26.7864L688.679 28.7864C687.228 39.9294 678.604 46.0008 664.771 46.0008Z"/>
<path d="M694.148 2.07203H709.517V19.715H712.078L724.288 2.07203H741.707V2.85775L723.52 23.7864L741.792 44.1437V44.9294H723.947L712.335 29.9293H709.517V44.9294H694.148V2.07203Z"/>
<path d="M758.256 37.1436L755.694 44.9294H739.898L756.463 2.07203H777.809L794.374 44.9294H777.894L775.418 37.1436H758.256ZM766.026 13.0721C765.172 16.2864 764.148 19.4293 763.123 22.6436L761.33 27.9293H772.43L770.722 22.6436C769.697 19.4293 768.758 16.2864 767.819 13.0721H766.026Z"/>
<path d="M794.233 13.8578V2.07203H836.583V13.8578H823.093V44.9294H807.723V13.8578H794.233Z"/>
<path d="M841.069 2.07203H856.438V17.8578H873.515V2.07203H888.884V44.9294H873.515V29.3579H856.438V44.9294H841.069V2.07203Z"/>
<path d="M920.357 46.0008C903.621 46.0008 894.144 37.5008 894.144 23.3578C894.144 9.21492 904.39 1.0006 920.357 1.0006C936.58 1.0006 946.57 9.21492 946.57 23.3578C946.57 37.5008 937.092 46.0008 920.357 46.0008ZM920.271 35.0722C928.297 35.0722 931.286 30.7864 931.286 23.2864C931.286 16.4292 928.298 12.1435 920.357 12.1435C912.416 12.1435 909.428 16.5007 909.428 23.2864C909.428 30.715 912.416 35.0722 920.271 35.0722Z"/>
<path d="M980.83 44.9294L973.487 31.0007C971.523 27.215 968.193 19.5721 965.888 13.6435L964.863 13.7149C965.461 20.3578 965.973 29.4293 965.973 34.0722V44.9294H951.885V2.07203H973.402L979.549 13.5007C982.196 18.4292 985.185 25.8579 986.978 31.2865L988.002 31.1436C987.405 24.9293 986.978 17.7864 986.978 13.3578V2.07203H1001.07V44.9294H980.83Z"/>
</mask>
<path d="M3.72137 34.215H15.1629V13.9292C12.6867 15.0721 9.95443 16.0721 6.11213 17.215L1.416 7.14348L21.1398 2.07203H29.6782V34.215H38.4728V44.9294H3.72137V34.215Z" fill="#FFFADD"/>
<path d="M64.9306 35.8579C70.9075 35.8579 72.4444 34.0008 72.4444 31.4293C72.4444 28.7864 70.7367 26.7864 65.1867 26.7864C61.2591 26.7864 58.6975 27.6436 56.3068 29.0007L44.6091 25.2864V2.07203H84.4836V13.6435C73.3836 13.6435 64.4183 13.1435 57.8437 12.6435V20.5721C60.7468 19.215 64.7598 18.2864 70.3098 18.2864C82.2636 18.2864 87.3013 24.1436 87.3013 31.5007C87.3013 41.3579 79.6167 45.6437 64.9306 45.6437C51.5253 45.6437 44.2676 42.0008 42.3891 34.2865L56.6483 31.3579C57.5022 33.5722 59.5514 35.8579 64.9306 35.8579Z" fill="#FFFADD"/>
<path d="M90.5626 13.8578V2.07203H132.913V13.8578H119.422V44.9294H104.053V13.8578H90.5626Z" fill="#FFFADD"/>
<path d="M137.399 2.07203H152.768V17.8578H169.845V2.07203H185.214V44.9294H169.845V29.3579H152.768V44.9294H137.399V2.07203Z" fill="#FFFADD"/>
<path d="M220.768 37.1436L218.207 44.9294H202.411L218.975 2.07203H240.321L256.886 44.9294H240.407L237.931 37.1436H220.768ZM228.538 13.0721C227.684 16.2864 226.66 19.4293 225.635 22.6436L223.842 27.9293H234.942L233.234 22.6436C232.21 19.4293 231.271 16.2864 230.331 13.0721H228.538Z" fill="#FFFADD"/>
<path d="M288.167 44.9294L280.824 31.0007C278.86 27.215 275.53 19.5721 273.224 13.6435L272.2 13.7149C272.797 20.3578 273.31 29.4293 273.31 34.0722V44.9294H259.221V2.07203H280.738L286.886 13.5007C289.533 18.4292 292.521 25.8579 294.314 31.2865L295.339 31.1436C294.741 24.9293 294.314 17.7864 294.314 13.3578V2.07203H308.403V44.9294H288.167Z" fill="#FFFADD"/>
<path d="M344.367 44.9294L337.024 31.0007C335.06 27.215 331.73 19.5721 329.425 13.6435L328.4 13.7149C328.998 20.3578 329.51 29.4293 329.51 34.0722V44.9294H315.422V2.07203H336.938L343.086 13.5007C345.733 18.4292 348.721 25.8579 350.514 31.2865L351.539 31.1436C350.941 24.9293 350.514 17.7864 350.514 13.3578V2.07203H364.603V44.9294H344.367Z" fill="#FFFADD"/>
<path d="M395.273 34.6436C401.762 34.6436 403.555 31.8579 403.555 27.0007V2.07203H418.925V28.0722C418.925 39.5008 410.557 45.9294 395.273 45.9294C379.904 45.9294 371.622 39.5008 371.622 28.0722V2.07203H386.991V27.0007C386.991 31.8579 388.784 34.6436 395.273 34.6436Z" fill="#FFFADD"/>
<path d="M439.482 37.1436L436.921 44.9294H421.125L437.689 2.07203H459.035L475.6 44.9294H459.121L456.645 37.1436H439.482ZM447.252 13.0721C446.398 16.2864 445.374 19.4293 444.349 22.6436L442.556 27.9293H453.656L451.948 22.6436C450.924 19.4293 449.985 16.2864 449.045 13.0721H447.252Z" fill="#FFFADD"/>
<path d="M493.304 2.07203V33.5007H513.967V44.9294H477.935V2.07203H493.304Z" fill="#FFFADD"/>
<path d="M534.052 2.07203H549.421V17.8578H566.498V2.07203H581.867V44.9294H566.498V29.3579H549.421V44.9294H534.052V2.07203Z" fill="#FFFADD"/>
<path d="M602.496 37.1436L599.935 44.9294H584.139L600.703 2.07203H622.049L638.614 44.9294H622.135L619.659 37.1436H602.496ZM610.266 13.0721C609.412 16.2864 608.388 19.4293 607.363 22.6436L605.57 27.9293H616.67L614.962 22.6436C613.938 19.4293 612.999 16.2864 612.059 13.0721H610.266Z" fill="#FFFADD"/>
<path d="M664.771 46.0008C648.805 46.0008 639.242 37.7151 639.242 23.3578C639.242 8.92921 649.488 1.0006 665.198 1.0006C678.945 1.0006 687.228 6.85776 688.594 18.0007L673.908 20.2864C672.883 14.8578 670.492 12.1435 664.686 12.1435C657.258 12.1435 654.525 17.2864 654.525 23.3578C654.525 30.6436 657.343 35.0722 664.601 35.0722C670.748 35.0722 672.798 32.2865 674.164 26.7864L688.679 28.7864C687.228 39.9294 678.604 46.0008 664.771 46.0008Z" fill="#FFFADD"/>
<path d="M694.148 2.07203H709.517V19.715H712.078L724.288 2.07203H741.707V2.85775L723.52 23.7864L741.792 44.1437V44.9294H723.947L712.335 29.9293H709.517V44.9294H694.148V2.07203Z" fill="#FFFADD"/>
<path d="M758.256 37.1436L755.694 44.9294H739.898L756.463 2.07203H777.809L794.374 44.9294H777.894L775.418 37.1436H758.256ZM766.026 13.0721C765.172 16.2864 764.148 19.4293 763.123 22.6436L761.33 27.9293H772.43L770.722 22.6436C769.697 19.4293 768.758 16.2864 767.819 13.0721H766.026Z" fill="#FFFADD"/>
<path d="M794.233 13.8578V2.07203H836.583V13.8578H823.093V44.9294H807.723V13.8578H794.233Z" fill="#FFFADD"/>
<path d="M841.069 2.07203H856.438V17.8578H873.515V2.07203H888.884V44.9294H873.515V29.3579H856.438V44.9294H841.069V2.07203Z" fill="#FFFADD"/>
<path d="M920.357 46.0008C903.621 46.0008 894.144 37.5008 894.144 23.3578C894.144 9.21492 904.39 1.0006 920.357 1.0006C936.58 1.0006 946.57 9.21492 946.57 23.3578C946.57 37.5008 937.092 46.0008 920.357 46.0008ZM920.271 35.0722C928.297 35.0722 931.286 30.7864 931.286 23.2864C931.286 16.4292 928.298 12.1435 920.357 12.1435C912.416 12.1435 909.428 16.5007 909.428 23.2864C909.428 30.715 912.416 35.0722 920.271 35.0722Z" fill="#FFFADD"/>
<path d="M980.83 44.9294L973.487 31.0007C971.523 27.215 968.193 19.5721 965.888 13.6435L964.863 13.7149C965.461 20.3578 965.973 29.4293 965.973 34.0722V44.9294H951.885V2.07203H973.402L979.549 13.5007C982.196 18.4292 985.185 25.8579 986.978 31.2865L988.002 31.1436C987.405 24.9293 986.978 17.7864 986.978 13.3578V2.07203H1001.07V44.9294H980.83Z" fill="#FFFADD"/>
<path d="M3.72137 34.215H15.1629V13.9292C12.6867 15.0721 9.95443 16.0721 6.11213 17.215L1.416 7.14348L21.1398 2.07203H29.6782V34.215H38.4728V44.9294H3.72137V34.215Z" stroke="#FFF5C9" stroke-width="2.00119" mask="url(#path-1-outside-1_0_4)"/>
<path d="M64.9306 35.8579C70.9075 35.8579 72.4444 34.0008 72.4444 31.4293C72.4444 28.7864 70.7367 26.7864 65.1867 26.7864C61.2591 26.7864 58.6975 27.6436 56.3068 29.0007L44.6091 25.2864V2.07203H84.4836V13.6435C73.3836 13.6435 64.4183 13.1435 57.8437 12.6435V20.5721C60.7468 19.215 64.7598 18.2864 70.3098 18.2864C82.2636 18.2864 87.3013 24.1436 87.3013 31.5007C87.3013 41.3579 79.6167 45.6437 64.9306 45.6437C51.5253 45.6437 44.2676 42.0008 42.3891 34.2865L56.6483 31.3579C57.5022 33.5722 59.5514 35.8579 64.9306 35.8579Z" stroke="#FFF5C9" stroke-width="2.00119" mask="url(#path-1-outside-1_0_4)"/>
<path d="M90.5626 13.8578V2.07203H132.913V13.8578H119.422V44.9294H104.053V13.8578H90.5626Z" stroke="#FFF5C9" stroke-width="2.00119" mask="url(#path-1-outside-1_0_4)"/>
<path d="M137.399 2.07203H152.768V17.8578H169.845V2.07203H185.214V44.9294H169.845V29.3579H152.768V44.9294H137.399V2.07203Z" stroke="#FFF5C9" stroke-width="2.00119" mask="url(#path-1-outside-1_0_4)"/>
<path d="M220.768 37.1436L218.207 44.9294H202.411L218.975 2.07203H240.321L256.886 44.9294H240.407L237.931 37.1436H220.768ZM228.538 13.0721C227.684 16.2864 226.66 19.4293 225.635 22.6436L223.842 27.9293H234.942L233.234 22.6436C232.21 19.4293 231.271 16.2864 230.331 13.0721H228.538Z" stroke="#FFF5C9" stroke-width="2.00119" mask="url(#path-1-outside-1_0_4)"/>
<path d="M288.167 44.9294L280.824 31.0007C278.86 27.215 275.53 19.5721 273.224 13.6435L272.2 13.7149C272.797 20.3578 273.31 29.4293 273.31 34.0722V44.9294H259.221V2.07203H280.738L286.886 13.5007C289.533 18.4292 292.521 25.8579 294.314 31.2865L295.339 31.1436C294.741 24.9293 294.314 17.7864 294.314 13.3578V2.07203H308.403V44.9294H288.167Z" stroke="#FFF5C9" stroke-width="2.00119" mask="url(#path-1-outside-1_0_4)"/>
<path d="M344.367 44.9294L337.024 31.0007C335.06 27.215 331.73 19.5721 329.425 13.6435L328.4 13.7149C328.998 20.3578 329.51 29.4293 329.51 34.0722V44.9294H315.422V2.07203H336.938L343.086 13.5007C345.733 18.4292 348.721 25.8579 350.514 31.2865L351.539 31.1436C350.941 24.9293 350.514 17.7864 350.514 13.3578V2.07203H364.603V44.9294H344.367Z" stroke="#FFF5C9" stroke-width="2.00119" mask="url(#path-1-outside-1_0_4)"/>
<path d="M395.273 34.6436C401.762 34.6436 403.555 31.8579 403.555 27.0007V2.07203H418.925V28.0722C418.925 39.5008 410.557 45.9294 395.273 45.9294C379.904 45.9294 371.622 39.5008 371.622 28.0722V2.07203H386.991V27.0007C386.991 31.8579 388.784 34.6436 395.273 34.6436Z" stroke="#FFF5C9" stroke-width="2.00119" mask="url(#path-1-outside-1_0_4)"/>
<path d="M439.482 37.1436L436.921 44.9294H421.125L437.689 2.07203H459.035L475.6 44.9294H459.121L456.645 37.1436H439.482ZM447.252 13.0721C446.398 16.2864 445.374 19.4293 444.349 22.6436L442.556 27.9293H453.656L451.948 22.6436C450.924 19.4293 449.985 16.2864 449.045 13.0721H447.252Z" stroke="#FFF5C9" stroke-width="2.00119" mask="url(#path-1-outside-1_0_4)"/>
<path d="M493.304 2.07203V33.5007H513.967V44.9294H477.935V2.07203H493.304Z" stroke="#FFF5C9" stroke-width="2.00119" mask="url(#path-1-outside-1_0_4)"/>
<path d="M534.052 2.07203H549.421V17.8578H566.498V2.07203H581.867V44.9294H566.498V29.3579H549.421V44.9294H534.052V2.07203Z" stroke="#FFF5C9" stroke-width="2.00119" mask="url(#path-1-outside-1_0_4)"/>
<path d="M602.496 37.1436L599.935 44.9294H584.139L600.703 2.07203H622.049L638.614 44.9294H622.135L619.659 37.1436H602.496ZM610.266 13.0721C609.412 16.2864 608.388 19.4293 607.363 22.6436L605.57 27.9293H616.67L614.962 22.6436C613.938 19.4293 612.999 16.2864 612.059 13.0721H610.266Z" stroke="#FFF5C9" stroke-width="2.00119" mask="url(#path-1-outside-1_0_4)"/>
<path d="M664.771 46.0008C648.805 46.0008 639.242 37.7151 639.242 23.3578C639.242 8.92921 649.488 1.0006 665.198 1.0006C678.945 1.0006 687.228 6.85776 688.594 18.0007L673.908 20.2864C672.883 14.8578 670.492 12.1435 664.686 12.1435C657.258 12.1435 654.525 17.2864 654.525 23.3578C654.525 30.6436 657.343 35.0722 664.601 35.0722C670.748 35.0722 672.798 32.2865 674.164 26.7864L688.679 28.7864C687.228 39.9294 678.604 46.0008 664.771 46.0008Z" stroke="#FFF5C9" stroke-width="2.00119" mask="url(#path-1-outside-1_0_4)"/>
<path d="M694.148 2.07203H709.517V19.715H712.078L724.288 2.07203H741.707V2.85775L723.52 23.7864L741.792 44.1437V44.9294H723.947L712.335 29.9293H709.517V44.9294H694.148V2.07203Z" stroke="#FFF5C9" stroke-width="2.00119" mask="url(#path-1-outside-1_0_4)"/>
<path d="M758.256 37.1436L755.694 44.9294H739.898L756.463 2.07203H777.809L794.374 44.9294H777.894L775.418 37.1436H758.256ZM766.026 13.0721C765.172 16.2864 764.148 19.4293 763.123 22.6436L761.33 27.9293H772.43L770.722 22.6436C769.697 19.4293 768.758 16.2864 767.819 13.0721H766.026Z" stroke="#FFF5C9" stroke-width="2.00119" mask="url(#path-1-outside-1_0_4)"/>
<path d="M794.233 13.8578V2.07203H836.583V13.8578H823.093V44.9294H807.723V13.8578H794.233Z" stroke="#FFF5C9" stroke-width="2.00119" mask="url(#path-1-outside-1_0_4)"/>
<path d="M841.069 2.07203H856.438V17.8578H873.515V2.07203H888.884V44.9294H873.515V29.3579H856.438V44.9294H841.069V2.07203Z" stroke="#FFF5C9" stroke-width="2.00119" mask="url(#path-1-outside-1_0_4)"/>
<path d="M920.357 46.0008C903.621 46.0008 894.144 37.5008 894.144 23.3578C894.144 9.21492 904.39 1.0006 920.357 1.0006C936.58 1.0006 946.57 9.21492 946.57 23.3578C946.57 37.5008 937.092 46.0008 920.357 46.0008ZM920.271 35.0722C928.297 35.0722 931.286 30.7864 931.286 23.2864C931.286 16.4292 928.298 12.1435 920.357 12.1435C912.416 12.1435 909.428 16.5007 909.428 23.2864C909.428 30.715 912.416 35.0722 920.271 35.0722Z" stroke="#FFF5C9" stroke-width="2.00119" mask="url(#path-1-outside-1_0_4)"/>
<path d="M980.83 44.9294L973.487 31.0007C971.523 27.215 968.193 19.5721 965.888 13.6435L964.863 13.7149C965.461 20.3578 965.973 29.4293 965.973 34.0722V44.9294H951.885V2.07203H973.402L979.549 13.5007C982.196 18.4292 985.185 25.8579 986.978 31.2865L988.002 31.1436C987.405 24.9293 986.978 17.7864 986.978 13.3578V2.07203H1001.07V44.9294H980.83Z" stroke="#FFF5C9" stroke-width="2.00119" mask="url(#path-1-outside-1_0_4)"/>
</g>
</svg>
